<svg width="194" height="107" viewBox="0 0 194 107" fill="none" xmlns="http://www.w3.org/2000/svg">
<g clip-path="url(#clip0_1030_12711)">
<path d="M11.0214 98.0046C11.6677 98.7776 11.9893 99.7234 11.9893 100.848C11.9893 102.359 11.4952 103.571 10.5068 104.485C9.51836 105.398 8.17614 105.855 6.483 105.855H0.5V87.9844H5.47706C7.13511 87.9844 8.44517 88.4002 9.39847 89.2289C10.3547 90.0605 10.8313 91.1644 10.8313 92.5377C10.8313 94.3502 10.0184 95.6679 8.39253 96.4907C9.49789 96.725 10.3752 97.2286 11.0214 98.0017V98.0046ZM2.38321 96.0427H5.6262C6.63214 96.0427 7.448 95.7206 8.07671 95.0735C8.70542 94.4264 9.01832 93.6358 9.01832 92.6958C9.01832 91.7559 8.69665 91.0355 8.05039 90.4821C7.40414 89.9287 6.50347 89.6505 5.34839 89.6505H2.38614V96.0427H2.38321ZM9.09727 103.267C9.76692 102.646 10.1032 101.814 10.1032 100.775C10.1032 99.7351 9.79324 99.0207 9.1733 98.4848C8.55336 97.949 7.70533 97.6796 6.63506 97.6796H2.38614V104.198H6.30755C7.49771 104.198 8.42762 103.887 9.09727 103.267Z" fill="black"/>
<path d="M17.8984 87.9873H27.68V89.7003H19.7846V96.0427H27.4519V97.7294H19.7846V104.148H27.8818V105.861H17.8984V87.9902V87.9873Z" fill="black"/>
<path d="M39.974 98.7103V105.858H38.1141V98.7103L31.7539 87.9873H33.8652L39.1201 96.848L44.3486 87.9873H46.3342L39.974 98.7103Z" fill="black"/>
<path d="M53.89 104.928C52.4747 104.14 51.3634 103.045 50.5593 101.642C49.7551 100.243 49.3516 98.6672 49.3516 96.922C49.3516 95.1768 49.7551 93.6044 50.5593 92.2018C51.3634 90.8021 52.4747 89.707 53.89 88.9164C55.3053 88.1287 56.8961 87.7334 58.6536 87.7334C60.411 87.7334 61.9755 88.1287 63.3938 88.9164C64.8091 89.7041 65.9203 90.7992 66.7245 92.2018C67.5287 93.6044 67.9322 95.168 67.9322 96.8957C67.9322 98.6233 67.5287 100.213 66.7245 101.616C65.9203 103.018 64.8091 104.117 63.3938 104.913C61.9784 105.709 60.3906 106.108 58.6302 106.108C56.8698 106.108 55.3082 105.712 53.89 104.925V104.928ZM62.4259 103.341C63.5488 102.702 64.429 101.821 65.0664 100.696C65.7039 99.572 66.0227 98.3129 66.0227 96.922C66.0227 95.5311 65.7039 94.2662 65.0664 93.133C64.429 91.9998 63.5488 91.1154 62.4259 90.4771C61.3029 89.8388 60.0455 89.5196 58.6536 89.5196C57.2616 89.5196 55.9808 89.8388 54.8579 90.4771C53.735 91.1154 52.8548 91.9998 52.2173 93.133C51.5798 94.2662 51.2611 95.5282 51.2611 96.922C51.2611 98.3158 51.5798 99.575 52.2173 100.696C52.8548 101.821 53.735 102.702 54.8579 103.341C55.9808 103.979 57.247 104.298 58.6536 104.298C60.0601 104.298 61.3029 103.979 62.4259 103.341Z" fill="black"/>
<path d="M88.3747 87.9883V105.859H86.588L75.9028 90.9838V105.859H74.043V87.9883H75.8297L86.5149 102.863V87.9883H88.3747Z" fill="black"/>
<path d="M105.874 89.0824C107.248 89.8116 108.31 90.8394 109.056 92.1658C109.801 93.4923 110.176 95.0266 110.176 96.7718C110.176 98.517 109.801 100.174 109.056 101.542C108.31 102.909 107.248 103.969 105.874 104.725C104.5 105.48 102.891 105.858 101.046 105.858H95.4141V87.9873H101.046C102.891 87.9873 104.5 88.3533 105.874 89.0824ZM104.856 103.24C105.953 102.637 106.795 101.785 107.383 100.687C107.971 99.5887 108.263 98.2916 108.263 96.7982C108.263 95.3048 107.971 94.1218 107.383 93.0472C106.795 91.9726 105.953 91.1468 104.856 90.567C103.757 89.9873 102.464 89.6974 100.973 89.6974H97.3031V104.145H100.95C102.459 104.145 103.763 103.843 104.859 103.24H104.856Z" fill="black"/>
<path d="M136.172 104.149V105.862H123.902V104.881L133.508 89.7042H124.154V87.9912H136.073V88.9487L126.52 104.152H136.175L136.172 104.149Z" fill="black"/>
<path d="M142.211 87.9873H151.993V89.7003H144.097V96.0427H151.767V97.7294H144.097V104.148H152.194V105.861H142.214V87.9902L142.211 87.9873Z" fill="black"/>
<path d="M168.81 105.858L163.932 98.3823H160.488V105.858H158.602V87.9873H163.731C165.456 87.9873 166.827 88.45 167.842 89.3723C168.857 90.2947 169.363 91.5363 169.363 93.097C169.363 94.2536 169.044 95.2755 168.407 96.154C167.769 97.0354 166.898 97.6591 165.792 98.028L171.047 105.855H168.81V105.858ZM166.31 95.8787C167.073 95.2843 167.453 94.3737 167.453 93.1468C167.453 91.9199 167.079 91.0736 166.333 90.5026C165.588 89.9316 164.661 89.6476 163.555 89.6476H160.488V96.7718H163.479C164.602 96.7718 165.547 96.4732 166.307 95.8787H166.31Z" fill="black"/>
<path d="M179.46 104.928C178.045 104.14 176.934 103.045 176.13 101.642C175.325 100.243 174.922 98.6672 174.922 96.922C174.922 95.1768 175.325 93.6044 176.13 92.2018C176.934 90.8021 178.045 89.707 179.46 88.9164C180.876 88.1287 182.466 87.7334 184.224 87.7334C185.981 87.7334 187.546 88.1287 188.964 88.9164C190.379 89.7041 191.491 90.7992 192.295 92.2018C193.099 93.6044 193.503 95.168 193.503 96.8957C193.503 98.6233 193.099 100.213 192.295 101.616C191.491 103.018 190.379 104.117 188.964 104.913C187.549 105.709 185.958 106.108 184.2 106.108C182.443 106.108 180.879 105.712 179.46 104.925V104.928ZM187.996 103.341C189.119 102.702 189.999 101.821 190.637 100.696C191.274 99.572 191.593 98.3129 191.593 96.922C191.593 95.5311 191.274 94.2662 190.637 93.133C189.999 91.9998 189.119 91.1154 187.996 90.4771C186.873 89.8388 185.616 89.5196 184.224 89.5196C182.832 89.5196 181.551 89.8388 180.428 90.4771C179.305 91.1154 178.425 91.9998 177.788 93.133C177.15 94.2662 176.831 95.5282 176.831 96.922C176.831 98.3158 177.15 99.575 177.788 100.696C178.425 101.821 179.305 102.702 180.428 103.341C181.551 103.979 182.817 104.298 184.224 104.298C185.63 104.298 186.873 103.979 187.996 103.341Z" fill="black"/>
<rect x="63.3712" y="0.110352" width="67.55" height="67.6409" fill="url(#paint0_radial_1030_12711)"/>
<path d="M108.705 18.4698C105.447 17.4216 101.394 16.8008 97.0018 16.8008C92.6096 16.8008 88.5536 17.4216 85.299 18.4698C76.6374 21.2575 70.6836 27.0494 70.6836 33.7432C70.6836 43.1573 82.4654 50.794 97.0047 50.794C111.544 50.794 123.32 43.1602 123.32 33.7432C123.32 27.0494 117.366 21.2604 108.705 18.4698ZM97.0018 43.4618C94.832 43.4618 93.0599 39.1925 92.9576 33.8252C94.2618 33.9423 95.6157 34.0067 97.0018 34.0067C98.3879 34.0067 99.7389 33.9423 101.046 33.8252C100.941 39.1925 99.1716 43.4618 97.0018 43.4618ZM93.2295 29.6233C93.8202 25.8576 95.2852 23.1871 97.0018 23.1871C98.7183 23.1871 100.18 25.8547 100.771 29.6233C99.5663 29.7316 98.3031 29.7931 97.0018 29.7931C95.7005 29.7931 94.4372 29.7316 93.2295 29.6233ZM103.075 29.3392C102.195 23.4272 99.809 19.1872 97.0018 19.1872C94.1945 19.1872 91.8054 23.4243 90.9252 29.3392C85.5797 28.5047 81.8425 26.6014 81.8425 24.3848C81.8425 21.398 88.6297 18.9793 97.0018 18.9793C105.374 18.9793 112.158 21.4009 112.158 24.3848C112.158 26.6014 108.421 28.5018 103.075 29.3392ZM74.5231 33.1195C74.5231 30.2323 75.6314 27.5296 77.5673 25.2017C77.5439 25.3628 77.5322 25.5267 77.5322 25.6907C77.5322 29.3217 82.98 32.408 90.5714 33.5412C90.5655 33.8164 90.5597 34.0917 90.5597 34.3669C90.5597 41.1193 92.4312 46.8351 95.0162 48.8087C83.5298 48.1059 74.5202 41.3506 74.5202 33.1195M98.9815 48.8087C101.567 46.838 103.435 41.1193 103.435 34.3669C103.435 34.0887 103.432 33.8135 103.426 33.5412C111.018 32.408 116.466 29.3187 116.466 25.6907C116.466 25.5267 116.454 25.3657 116.43 25.2017C118.366 27.5296 119.475 30.2323 119.475 33.1195C119.475 41.3506 110.465 48.1059 98.9815 48.8087Z" fill="white"/>
</g>
<defs>
<radialGradient id="paint0_radial_1030_12711" cx="0" cy="0" r="1" gradientUnits="userSpaceOnUse" gradientTransform="translate(97.1462 138.398) rotate(-90) scale(138.288 93.1568)">
<stop offset="0.561273" stop-color="#00C7FD"/>
<stop offset="0.855482" stop-color="#0046D2"/>
<stop offset="0.982218" stop-color="#001E5A"/>
</radialGradient>
<clipPath id="clip0_1030_12711">
<rect width="193" height="106" fill="white" transform="translate(0.5 0.110352)"/>
</clipPath>
</defs>
</svg>
